<mxfile host="app.diagrams.net" agent="Mozilla/5.0 (Macintosh; Intel Mac OS X 10.15; rv:133.0) Gecko/20100101 Firefox/133.0" version="26.0.13">
  <diagram name="Page-1" id="nwqRPkwvSNwaVwL3-yd8">
    <mxGraphModel dx="1853" dy="659" grid="1" gridSize="10" guides="1" tooltips="1" connect="1" arrows="1" fold="1" page="1" pageScale="1" pageWidth="827" pageHeight="1169" math="0" shadow="0">
      <root>
        <mxCell id="0" />
        <mxCell id="1" parent="0" />
        <mxCell id="G7B0CxRT04uzo2U-wHcq-9" value="" style="group" parent="1" vertex="1" connectable="0">
          <mxGeometry x="-450" y="250" width="790" height="550" as="geometry" />
        </mxCell>
        <mxCell id="G7B0CxRT04uzo2U-wHcq-12" value="" style="group" parent="G7B0CxRT04uzo2U-wHcq-9" vertex="1" connectable="0">
          <mxGeometry x="98.75" y="50" width="680" height="500" as="geometry" />
        </mxCell>
        <mxCell id="G7B0CxRT04uzo2U-wHcq-14" value="Service" style="text;html=1;align=center;verticalAlign=middle;whiteSpace=wrap;rounded=0;" parent="G7B0CxRT04uzo2U-wHcq-12" vertex="1">
          <mxGeometry x="215.45454545454544" width="161.5909090909091" height="30" as="geometry" />
        </mxCell>
        <mxCell id="G7B0CxRT04uzo2U-wHcq-26" value="" style="rounded=0;whiteSpace=wrap;html=1;" parent="G7B0CxRT04uzo2U-wHcq-12" vertex="1">
          <mxGeometry x="-57.5" y="-20" width="737.5" height="520" as="geometry" />
        </mxCell>
        <mxCell id="G7B0CxRT04uzo2U-wHcq-34" value="" style="group" parent="G7B0CxRT04uzo2U-wHcq-12" vertex="1" connectable="0">
          <mxGeometry x="391.24" y="39.38" width="261.25" height="291.25" as="geometry" />
        </mxCell>
        <mxCell id="G7B0CxRT04uzo2U-wHcq-32" value="" style="whiteSpace=wrap;html=1;aspect=fixed;dashed=1;rounded=1;" parent="G7B0CxRT04uzo2U-wHcq-34" vertex="1">
          <mxGeometry y="29.999999999999993" width="261.25" height="261.25" as="geometry" />
        </mxCell>
        <mxCell id="G7B0CxRT04uzo2U-wHcq-33" value="service-1" style="text;html=1;align=center;verticalAlign=middle;whiteSpace=wrap;rounded=0;" parent="G7B0CxRT04uzo2U-wHcq-34" vertex="1">
          <mxGeometry x="100.63" width="60" height="30" as="geometry" />
        </mxCell>
        <mxCell id="zPnNZ71Jco0NNzj5yLCY-23" value="Buy Tulipan Handler" style="rounded=1;whiteSpace=wrap;html=1;fillColor=#dae8fc;strokeColor=#6c8ebf;" vertex="1" parent="G7B0CxRT04uzo2U-wHcq-34">
          <mxGeometry x="70.00999999999999" y="72.62" width="80" height="30" as="geometry" />
        </mxCell>
        <mxCell id="zPnNZ71Jco0NNzj5yLCY-52" value="Buy Tulipan Handler" style="rounded=1;whiteSpace=wrap;html=1;fillColor=#ffe6cc;strokeColor=#d79b00;" vertex="1" parent="G7B0CxRT04uzo2U-wHcq-34">
          <mxGeometry x="120.00999999999999" y="130.63" width="80" height="30" as="geometry" />
        </mxCell>
        <mxCell id="G7B0CxRT04uzo2U-wHcq-36" value="" style="group" parent="G7B0CxRT04uzo2U-wHcq-12" vertex="1" connectable="0">
          <mxGeometry x="11.25" y="39.379999999999995" width="260.63" height="291.25" as="geometry" />
        </mxCell>
        <mxCell id="G7B0CxRT04uzo2U-wHcq-13" value="" style="whiteSpace=wrap;html=1;aspect=fixed;dashed=1;rounded=1;" parent="G7B0CxRT04uzo2U-wHcq-36" vertex="1">
          <mxGeometry y="30.620000000000005" width="260.63" height="260.63" as="geometry" />
        </mxCell>
        <mxCell id="G7B0CxRT04uzo2U-wHcq-35" value="Frontend" style="text;html=1;align=center;verticalAlign=middle;whiteSpace=wrap;rounded=0;" parent="G7B0CxRT04uzo2U-wHcq-36" vertex="1">
          <mxGeometry x="100.31" width="60" height="30" as="geometry" />
        </mxCell>
        <mxCell id="zPnNZ71Jco0NNzj5yLCY-6" value="Buy Tulipan" style="rounded=1;whiteSpace=wrap;html=1;fillColor=#dae8fc;strokeColor=#6c8ebf;" vertex="1" parent="G7B0CxRT04uzo2U-wHcq-36">
          <mxGeometry x="100.31" y="70.62" width="80" height="30" as="geometry" />
        </mxCell>
        <mxCell id="zPnNZ71Jco0NNzj5yLCY-51" value="Sell Tulipan" style="rounded=1;whiteSpace=wrap;html=1;fillColor=#ffe6cc;strokeColor=#d79b00;" vertex="1" parent="G7B0CxRT04uzo2U-wHcq-36">
          <mxGeometry x="100.31" y="130.63" width="80" height="30" as="geometry" />
        </mxCell>
        <mxCell id="G7B0CxRT04uzo2U-wHcq-37" value="&lt;b&gt;JSON&lt;/b&gt;" style="shape=flexArrow;endArrow=classic;startArrow=classic;html=1;rounded=0;entryX=0.008;entryY=0.466;entryDx=0;entryDy=0;entryPerimeter=0;exitX=1.005;exitY=0.468;exitDx=0;exitDy=0;exitPerimeter=0;width=79;endSize=6.6;" parent="G7B0CxRT04uzo2U-wHcq-12" source="G7B0CxRT04uzo2U-wHcq-13" target="G7B0CxRT04uzo2U-wHcq-32" edge="1">
          <mxGeometry width="100" height="100" relative="1" as="geometry">
            <mxPoint x="271.25" y="200" as="sourcePoint" />
            <mxPoint x="451.25" y="140" as="targetPoint" />
          </mxGeometry>
        </mxCell>
        <mxCell id="zPnNZ71Jco0NNzj5yLCY-1" value="&lt;b&gt;DB&lt;/b&gt;" style="shape=cylinder3;whiteSpace=wrap;html=1;boundedLbl=1;backgroundOutline=1;size=15;" vertex="1" parent="G7B0CxRT04uzo2U-wHcq-12">
          <mxGeometry x="477.8" y="390" width="88.13" height="90" as="geometry" />
        </mxCell>
        <mxCell id="zPnNZ71Jco0NNzj5yLCY-2" value="" style="shape=flexArrow;endArrow=classic;startArrow=classic;html=1;rounded=0;exitX=0.5;exitY=0;exitDx=0;exitDy=0;exitPerimeter=0;entryX=0.5;entryY=1;entryDx=0;entryDy=0;fillColor=none;width=69;startSize=7.33;" edge="1" parent="G7B0CxRT04uzo2U-wHcq-12" source="zPnNZ71Jco0NNzj5yLCY-1" target="G7B0CxRT04uzo2U-wHcq-32">
          <mxGeometry width="100" height="100" relative="1" as="geometry">
            <mxPoint x="631.25" y="390" as="sourcePoint" />
            <mxPoint x="731.25" y="290" as="targetPoint" />
          </mxGeometry>
        </mxCell>
        <mxCell id="zPnNZ71Jco0NNzj5yLCY-22" value="" style="endArrow=classic;html=1;rounded=0;exitX=1;exitY=0.5;exitDx=0;exitDy=0;entryX=0;entryY=0.5;entryDx=0;entryDy=0;fillColor=#dae8fc;strokeColor=#6c8ebf;" edge="1" parent="G7B0CxRT04uzo2U-wHcq-12" source="zPnNZ71Jco0NNzj5yLCY-6" target="zPnNZ71Jco0NNzj5yLCY-23">
          <mxGeometry width="50" height="50" relative="1" as="geometry">
            <mxPoint x="411.25" y="190" as="sourcePoint" />
            <mxPoint x="581.25" y="-120" as="targetPoint" />
            <Array as="points">
              <mxPoint x="231.25" y="125" />
              <mxPoint x="231.25" y="170" />
              <mxPoint x="441.25" y="170" />
              <mxPoint x="441.25" y="130" />
            </Array>
          </mxGeometry>
        </mxCell>
        <mxCell id="zPnNZ71Jco0NNzj5yLCY-25" value="" style="endArrow=classic;html=1;rounded=0;exitX=0.25;exitY=1;exitDx=0;exitDy=0;fillColor=#dae8fc;strokeColor=#6c8ebf;" edge="1" parent="G7B0CxRT04uzo2U-wHcq-12" source="zPnNZ71Jco0NNzj5yLCY-23">
          <mxGeometry width="50" height="50" relative="1" as="geometry">
            <mxPoint x="511.25" y="320" as="sourcePoint" />
            <mxPoint x="502.25" y="390" as="targetPoint" />
            <Array as="points">
              <mxPoint x="481.25" y="300" />
              <mxPoint x="502.25" y="300" />
            </Array>
          </mxGeometry>
        </mxCell>
        <mxCell id="zPnNZ71Jco0NNzj5yLCY-53" value="" style="endArrow=classic;html=1;rounded=0;exitX=1;exitY=0.5;exitDx=0;exitDy=0;entryX=0;entryY=0.5;entryDx=0;entryDy=0;fillColor=#ffe6cc;strokeColor=#d79b00;" edge="1" parent="G7B0CxRT04uzo2U-wHcq-12" source="zPnNZ71Jco0NNzj5yLCY-51" target="zPnNZ71Jco0NNzj5yLCY-52">
          <mxGeometry width="50" height="50" relative="1" as="geometry">
            <mxPoint x="401.25" y="180" as="sourcePoint" />
            <mxPoint x="451.25" y="130" as="targetPoint" />
          </mxGeometry>
        </mxCell>
        <mxCell id="zPnNZ71Jco0NNzj5yLCY-54" value="" style="endArrow=classic;html=1;rounded=0;exitX=0.25;exitY=1;exitDx=0;exitDy=0;entryX=0.618;entryY=0.033;entryDx=0;entryDy=0;entryPerimeter=0;fillColor=#ffe6cc;strokeColor=#d79b00;" edge="1" parent="G7B0CxRT04uzo2U-wHcq-12" source="zPnNZ71Jco0NNzj5yLCY-52" target="zPnNZ71Jco0NNzj5yLCY-1">
          <mxGeometry width="50" height="50" relative="1" as="geometry">
            <mxPoint x="401.25" y="320" as="sourcePoint" />
            <mxPoint x="451.25" y="270" as="targetPoint" />
          </mxGeometry>
        </mxCell>
        <mxCell id="G7B0CxRT04uzo2U-wHcq-4" value="&lt;div&gt;OFF-CHAIN&lt;/div&gt;&lt;div&gt;(Rust / TS)&lt;br&gt;&lt;/div&gt;&lt;div&gt;&lt;br&gt;&lt;/div&gt;" style="text;html=1;align=center;verticalAlign=middle;whiteSpace=wrap;rounded=0;" parent="G7B0CxRT04uzo2U-wHcq-9" vertex="1">
          <mxGeometry x="305.22727272727275" width="161.5909090909091" height="30" as="geometry" />
        </mxCell>
        <mxCell id="G7B0CxRT04uzo2U-wHcq-8" value="" style="group" parent="1" vertex="1" connectable="0">
          <mxGeometry x="414" y="250" width="440" height="470" as="geometry" />
        </mxCell>
        <mxCell id="G7B0CxRT04uzo2U-wHcq-1" value="" style="whiteSpace=wrap;html=1;aspect=fixed;" parent="G7B0CxRT04uzo2U-wHcq-8" vertex="1">
          <mxGeometry y="30" width="440" height="440" as="geometry" />
        </mxCell>
        <mxCell id="G7B0CxRT04uzo2U-wHcq-2" value="ON-CHAIN (Solana)" style="text;html=1;align=center;verticalAlign=middle;whiteSpace=wrap;rounded=0;" parent="G7B0CxRT04uzo2U-wHcq-8" vertex="1">
          <mxGeometry x="175" width="90" height="30" as="geometry" />
        </mxCell>
        <mxCell id="G7B0CxRT04uzo2U-wHcq-7" value="" style="group" parent="G7B0CxRT04uzo2U-wHcq-8" vertex="1" connectable="0">
          <mxGeometry x="46" y="40" width="330" height="360" as="geometry" />
        </mxCell>
        <mxCell id="G7B0CxRT04uzo2U-wHcq-5" value="" style="whiteSpace=wrap;html=1;aspect=fixed;dashed=1;rounded=1;" parent="G7B0CxRT04uzo2U-wHcq-7" vertex="1">
          <mxGeometry y="30" width="330" height="330" as="geometry" />
        </mxCell>
        <mxCell id="G7B0CxRT04uzo2U-wHcq-6" value="Smart Contract" style="text;html=1;align=center;verticalAlign=middle;whiteSpace=wrap;rounded=0;" parent="G7B0CxRT04uzo2U-wHcq-7" vertex="1">
          <mxGeometry x="120" width="90" height="30" as="geometry" />
        </mxCell>
        <mxCell id="G7B0CxRT04uzo2U-wHcq-15" value="Initialize" style="rounded=1;whiteSpace=wrap;html=1;fillColor=#d5e8d4;strokeColor=#82b366;" parent="G7B0CxRT04uzo2U-wHcq-7" vertex="1">
          <mxGeometry x="30" y="50" width="120" height="30" as="geometry" />
        </mxCell>
        <mxCell id="G7B0CxRT04uzo2U-wHcq-16" value="buy order" style="rounded=1;whiteSpace=wrap;html=1;fillColor=#fff2cc;strokeColor=#d6b656;" parent="G7B0CxRT04uzo2U-wHcq-7" vertex="1">
          <mxGeometry x="40" y="123" width="120" height="30" as="geometry" />
        </mxCell>
        <mxCell id="G7B0CxRT04uzo2U-wHcq-17" value="sell order" style="rounded=1;whiteSpace=wrap;html=1;fillColor=#fff2cc;strokeColor=#d6b656;" parent="G7B0CxRT04uzo2U-wHcq-7" vertex="1">
          <mxGeometry x="40" y="156" width="120" height="30" as="geometry" />
        </mxCell>
        <mxCell id="G7B0CxRT04uzo2U-wHcq-18" value="&lt;div&gt;&lt;b&gt;EMIT&lt;br&gt;&lt;/b&gt;&lt;/div&gt;&lt;div&gt;&lt;b&gt;(Event)&lt;br&gt;&lt;/b&gt;&lt;/div&gt;" style="shape=flexArrow;endArrow=none;startArrow=block;html=1;rounded=0;exitX=1.006;exitY=0.648;exitDx=0;exitDy=0;exitPerimeter=0;startFill=0;entryX=0.006;entryY=0.667;entryDx=0;entryDy=0;entryPerimeter=0;" parent="1" source="G7B0CxRT04uzo2U-wHcq-32" target="G7B0CxRT04uzo2U-wHcq-5" edge="1">
          <mxGeometry x="0.0056" width="100" height="100" relative="1" as="geometry">
            <mxPoint x="290" y="550" as="sourcePoint" />
            <mxPoint x="461" y="551" as="targetPoint" />
            <mxPoint as="offset" />
          </mxGeometry>
        </mxCell>
        <mxCell id="zPnNZ71Jco0NNzj5yLCY-4" value="&lt;div align=&quot;left&quot;&gt;&lt;b&gt;deploy&lt;/b&gt;&lt;/div&gt;&lt;div align=&quot;left&quot;&gt;&lt;b&gt;smart&lt;/b&gt;&lt;/div&gt;&lt;div align=&quot;left&quot;&gt;&lt;b&gt;contract&lt;/b&gt;&lt;/div&gt;" style="endArrow=classic;html=1;rounded=0;entryX=0;entryY=0.5;entryDx=0;entryDy=0;strokeWidth=2;startArrow=oval;startFill=1;align=left;" edge="1" parent="1" target="G7B0CxRT04uzo2U-wHcq-15">
          <mxGeometry x="-1" y="10" width="50" height="50" relative="1" as="geometry">
            <mxPoint x="440" y="130" as="sourcePoint" />
            <mxPoint x="200" y="410" as="targetPoint" />
            <Array as="points">
              <mxPoint x="440" y="355" />
            </Array>
            <mxPoint as="offset" />
          </mxGeometry>
        </mxCell>
        <mxCell id="zPnNZ71Jco0NNzj5yLCY-26" value="&lt;h2&gt;&lt;b&gt;User Flow&lt;/b&gt;&lt;/h2&gt;&lt;div&gt;- user place order to buy Tulipan(s)&lt;br&gt;&lt;/div&gt;&lt;div&gt;- user place order to sell Tulipan(s)&lt;br&gt;&lt;/div&gt;" style="text;html=1;whiteSpace=wrap;overflow=hidden;rounded=0;" vertex="1" parent="1">
          <mxGeometry x="-290" y="50" width="270" height="120" as="geometry" />
        </mxCell>
        <mxCell id="zPnNZ71Jco0NNzj5yLCY-49" value="" style="group" vertex="1" connectable="0" parent="1">
          <mxGeometry x="200" y="820" width="280" height="190" as="geometry" />
        </mxCell>
        <mxCell id="zPnNZ71Jco0NNzj5yLCY-27" value="Assets" style="childLayout=tableLayout;recursiveResize=0;strokeColor=#98bf21;fillColor=#A7C942;shadow=1;" vertex="1" parent="zPnNZ71Jco0NNzj5yLCY-49">
          <mxGeometry y="30" width="280" height="160" as="geometry" />
        </mxCell>
        <mxCell id="zPnNZ71Jco0NNzj5yLCY-28" style="shape=tableRow;horizontal=0;startSize=0;swimlaneHead=0;swimlaneBody=0;top=0;left=0;bottom=0;right=0;dropTarget=0;collapsible=0;recursiveResize=0;expand=0;fontStyle=0;strokeColor=inherit;fillColor=#ffffff;" vertex="1" parent="zPnNZ71Jco0NNzj5yLCY-27">
          <mxGeometry width="280" height="33" as="geometry" />
        </mxCell>
        <mxCell id="zPnNZ71Jco0NNzj5yLCY-29" value="orderId" style="connectable=0;recursiveResize=0;strokeColor=inherit;fillColor=#A7C942;align=center;fontStyle=1;fontColor=#FFFFFF;html=1;" vertex="1" parent="zPnNZ71Jco0NNzj5yLCY-28">
          <mxGeometry width="93" height="33" as="geometry">
            <mxRectangle width="93" height="33" as="alternateBounds" />
          </mxGeometry>
        </mxCell>
        <mxCell id="zPnNZ71Jco0NNzj5yLCY-30" value="quantity" style="connectable=0;recursiveResize=0;strokeColor=inherit;fillColor=#A7C942;align=center;fontStyle=1;fontColor=#FFFFFF;html=1;" vertex="1" parent="zPnNZ71Jco0NNzj5yLCY-28">
          <mxGeometry x="93" width="94" height="33" as="geometry">
            <mxRectangle width="94" height="33" as="alternateBounds" />
          </mxGeometry>
        </mxCell>
        <mxCell id="zPnNZ71Jco0NNzj5yLCY-31" value="inserted" style="connectable=0;recursiveResize=0;strokeColor=inherit;fillColor=#A7C942;align=center;fontStyle=1;fontColor=#FFFFFF;html=1;" vertex="1" parent="zPnNZ71Jco0NNzj5yLCY-28">
          <mxGeometry x="187" width="93" height="33" as="geometry">
            <mxRectangle width="93" height="33" as="alternateBounds" />
          </mxGeometry>
        </mxCell>
        <mxCell id="zPnNZ71Jco0NNzj5yLCY-32" value="" style="shape=tableRow;horizontal=0;startSize=0;swimlaneHead=0;swimlaneBody=0;top=0;left=0;bottom=0;right=0;dropTarget=0;collapsible=0;recursiveResize=0;expand=0;fontStyle=0;strokeColor=inherit;fillColor=#ffffff;" vertex="1" parent="zPnNZ71Jco0NNzj5yLCY-27">
          <mxGeometry y="33" width="280" height="32" as="geometry" />
        </mxCell>
        <mxCell id="zPnNZ71Jco0NNzj5yLCY-33" value="id1" style="connectable=0;recursiveResize=0;strokeColor=inherit;fillColor=inherit;align=center;whiteSpace=wrap;html=1;" vertex="1" parent="zPnNZ71Jco0NNzj5yLCY-32">
          <mxGeometry width="93" height="32" as="geometry">
            <mxRectangle width="93" height="32" as="alternateBounds" />
          </mxGeometry>
        </mxCell>
        <mxCell id="zPnNZ71Jco0NNzj5yLCY-34" value="2" style="connectable=0;recursiveResize=0;strokeColor=inherit;fillColor=inherit;align=center;whiteSpace=wrap;html=1;" vertex="1" parent="zPnNZ71Jco0NNzj5yLCY-32">
          <mxGeometry x="93" width="94" height="32" as="geometry">
            <mxRectangle width="94" height="32" as="alternateBounds" />
          </mxGeometry>
        </mxCell>
        <mxCell id="zPnNZ71Jco0NNzj5yLCY-35" value="31-01-25" style="connectable=0;recursiveResize=0;strokeColor=inherit;fillColor=inherit;align=center;whiteSpace=wrap;html=1;" vertex="1" parent="zPnNZ71Jco0NNzj5yLCY-32">
          <mxGeometry x="187" width="93" height="32" as="geometry">
            <mxRectangle width="93" height="32" as="alternateBounds" />
          </mxGeometry>
        </mxCell>
        <mxCell id="zPnNZ71Jco0NNzj5yLCY-36" value="" style="shape=tableRow;horizontal=0;startSize=0;swimlaneHead=0;swimlaneBody=0;top=0;left=0;bottom=0;right=0;dropTarget=0;collapsible=0;recursiveResize=0;expand=0;fontStyle=1;strokeColor=inherit;fillColor=#EAF2D3;" vertex="1" parent="zPnNZ71Jco0NNzj5yLCY-27">
          <mxGeometry y="65" width="280" height="31" as="geometry" />
        </mxCell>
        <mxCell id="zPnNZ71Jco0NNzj5yLCY-37" value="id2" style="connectable=0;recursiveResize=0;strokeColor=inherit;fillColor=inherit;whiteSpace=wrap;html=1;" vertex="1" parent="zPnNZ71Jco0NNzj5yLCY-36">
          <mxGeometry width="93" height="31" as="geometry">
            <mxRectangle width="93" height="31" as="alternateBounds" />
          </mxGeometry>
        </mxCell>
        <mxCell id="zPnNZ71Jco0NNzj5yLCY-38" value="12" style="connectable=0;recursiveResize=0;strokeColor=inherit;fillColor=inherit;whiteSpace=wrap;html=1;" vertex="1" parent="zPnNZ71Jco0NNzj5yLCY-36">
          <mxGeometry x="93" width="94" height="31" as="geometry">
            <mxRectangle width="94" height="31" as="alternateBounds" />
          </mxGeometry>
        </mxCell>
        <mxCell id="zPnNZ71Jco0NNzj5yLCY-39" value="&lt;div&gt;09-02-25&lt;/div&gt;" style="connectable=0;recursiveResize=0;strokeColor=inherit;fillColor=inherit;whiteSpace=wrap;html=1;" vertex="1" parent="zPnNZ71Jco0NNzj5yLCY-36">
          <mxGeometry x="187" width="93" height="31" as="geometry">
            <mxRectangle width="93" height="31" as="alternateBounds" />
          </mxGeometry>
        </mxCell>
        <mxCell id="zPnNZ71Jco0NNzj5yLCY-40" value="" style="shape=tableRow;horizontal=0;startSize=0;swimlaneHead=0;swimlaneBody=0;top=0;left=0;bottom=0;right=0;dropTarget=0;collapsible=0;recursiveResize=0;expand=0;fontStyle=0;strokeColor=inherit;fillColor=#ffffff;" vertex="1" parent="zPnNZ71Jco0NNzj5yLCY-27">
          <mxGeometry y="96" width="280" height="33" as="geometry" />
        </mxCell>
        <mxCell id="zPnNZ71Jco0NNzj5yLCY-41" value="id3" style="connectable=0;recursiveResize=0;strokeColor=inherit;fillColor=inherit;fontStyle=0;align=center;whiteSpace=wrap;html=1;" vertex="1" parent="zPnNZ71Jco0NNzj5yLCY-40">
          <mxGeometry width="93" height="33" as="geometry">
            <mxRectangle width="93" height="33" as="alternateBounds" />
          </mxGeometry>
        </mxCell>
        <mxCell id="zPnNZ71Jco0NNzj5yLCY-42" value="4" style="connectable=0;recursiveResize=0;strokeColor=inherit;fillColor=inherit;fontStyle=0;align=center;whiteSpace=wrap;html=1;" vertex="1" parent="zPnNZ71Jco0NNzj5yLCY-40">
          <mxGeometry x="93" width="94" height="33" as="geometry">
            <mxRectangle width="94" height="33" as="alternateBounds" />
          </mxGeometry>
        </mxCell>
        <mxCell id="zPnNZ71Jco0NNzj5yLCY-43" value="10-02-25" style="connectable=0;recursiveResize=0;strokeColor=inherit;fillColor=inherit;fontStyle=0;align=center;whiteSpace=wrap;html=1;" vertex="1" parent="zPnNZ71Jco0NNzj5yLCY-40">
          <mxGeometry x="187" width="93" height="33" as="geometry">
            <mxRectangle width="93" height="33" as="alternateBounds" />
          </mxGeometry>
        </mxCell>
        <mxCell id="zPnNZ71Jco0NNzj5yLCY-44" value="" style="shape=tableRow;horizontal=0;startSize=0;swimlaneHead=0;swimlaneBody=0;top=0;left=0;bottom=0;right=0;dropTarget=0;collapsible=0;recursiveResize=0;expand=0;fontStyle=1;strokeColor=inherit;fillColor=#EAF2D3;" vertex="1" parent="zPnNZ71Jco0NNzj5yLCY-27">
          <mxGeometry y="129" width="280" height="31" as="geometry" />
        </mxCell>
        <mxCell id="zPnNZ71Jco0NNzj5yLCY-45" value="..." style="connectable=0;recursiveResize=0;strokeColor=inherit;fillColor=inherit;whiteSpace=wrap;html=1;" vertex="1" parent="zPnNZ71Jco0NNzj5yLCY-44">
          <mxGeometry width="93" height="31" as="geometry">
            <mxRectangle width="93" height="31" as="alternateBounds" />
          </mxGeometry>
        </mxCell>
        <mxCell id="zPnNZ71Jco0NNzj5yLCY-46" value="..." style="connectable=0;recursiveResize=0;strokeColor=inherit;fillColor=inherit;whiteSpace=wrap;html=1;" vertex="1" parent="zPnNZ71Jco0NNzj5yLCY-44">
          <mxGeometry x="93" width="94" height="31" as="geometry">
            <mxRectangle width="94" height="31" as="alternateBounds" />
          </mxGeometry>
        </mxCell>
        <mxCell id="zPnNZ71Jco0NNzj5yLCY-47" value="..." style="connectable=0;recursiveResize=0;strokeColor=inherit;fillColor=inherit;whiteSpace=wrap;html=1;" vertex="1" parent="zPnNZ71Jco0NNzj5yLCY-44">
          <mxGeometry x="187" width="93" height="31" as="geometry">
            <mxRectangle width="93" height="31" as="alternateBounds" />
          </mxGeometry>
        </mxCell>
        <mxCell id="zPnNZ71Jco0NNzj5yLCY-48" value="Buy Orders" style="text;html=1;align=center;verticalAlign=middle;whiteSpace=wrap;rounded=0;fontStyle=1" vertex="1" parent="zPnNZ71Jco0NNzj5yLCY-49">
          <mxGeometry x="90" width="90" height="30" as="geometry" />
        </mxCell>
        <mxCell id="zPnNZ71Jco0NNzj5yLCY-50" value="" style="endArrow=classic;html=1;rounded=0;exitX=1;exitY=0.5;exitDx=0;exitDy=0;entryX=0;entryY=0.5;entryDx=0;entryDy=0;" edge="1" parent="1" source="zPnNZ71Jco0NNzj5yLCY-23" target="G7B0CxRT04uzo2U-wHcq-16">
          <mxGeometry width="50" height="50" relative="1" as="geometry">
            <mxPoint x="280" y="570" as="sourcePoint" />
            <mxPoint x="330" y="520" as="targetPoint" />
          </mxGeometry>
        </mxCell>
        <mxCell id="zPnNZ71Jco0NNzj5yLCY-55" value="" style="endArrow=classic;html=1;rounded=0;exitX=1;exitY=0.5;exitDx=0;exitDy=0;entryX=0;entryY=0.5;entryDx=0;entryDy=0;fillColor=#ffe6cc;strokeColor=#d79b00;" edge="1" parent="1" source="zPnNZ71Jco0NNzj5yLCY-52" target="G7B0CxRT04uzo2U-wHcq-17">
          <mxGeometry width="50" height="50" relative="1" as="geometry">
            <mxPoint x="189.75" y="510" as="sourcePoint" />
            <mxPoint x="190.75" y="703" as="targetPoint" />
            <Array as="points">
              <mxPoint x="260" y="485" />
              <mxPoint x="260" y="460" />
            </Array>
          </mxGeometry>
        </mxCell>
        <mxCell id="zPnNZ71Jco0NNzj5yLCY-56" value="&lt;div&gt;&lt;b&gt;RPC&lt;/b&gt;&lt;/div&gt;&lt;div&gt;&lt;b&gt;(return 1K)&lt;br&gt;&lt;/b&gt;&lt;/div&gt;" style="shape=flexArrow;endArrow=classic;startArrow=classic;html=1;rounded=0;entryX=0.003;entryY=0.379;entryDx=0;entryDy=0;entryPerimeter=0;exitX=1.003;exitY=0.293;exitDx=0;exitDy=0;exitPerimeter=0;width=70;endSize=7.6;" edge="1" parent="1" source="G7B0CxRT04uzo2U-wHcq-32" target="G7B0CxRT04uzo2U-wHcq-5">
          <mxGeometry x="-0.0152" y="56" width="100" height="100" relative="1" as="geometry">
            <mxPoint x="180" y="620" as="sourcePoint" />
            <mxPoint x="280" y="520" as="targetPoint" />
            <mxPoint as="offset" />
          </mxGeometry>
        </mxCell>
        <mxCell id="zPnNZ71Jco0NNzj5yLCY-57" value="" style="group" vertex="1" connectable="0" parent="1">
          <mxGeometry x="-90" y="830" width="280" height="190" as="geometry" />
        </mxCell>
        <mxCell id="zPnNZ71Jco0NNzj5yLCY-58" value="Assets" style="childLayout=tableLayout;recursiveResize=0;strokeColor=#98bf21;fillColor=#A7C942;shadow=1;" vertex="1" parent="zPnNZ71Jco0NNzj5yLCY-57">
          <mxGeometry y="15" width="280" height="160" as="geometry" />
        </mxCell>
        <mxCell id="zPnNZ71Jco0NNzj5yLCY-59" style="shape=tableRow;horizontal=0;startSize=0;swimlaneHead=0;swimlaneBody=0;top=0;left=0;bottom=0;right=0;dropTarget=0;collapsible=0;recursiveResize=0;expand=0;fontStyle=0;strokeColor=inherit;fillColor=#ffffff;" vertex="1" parent="zPnNZ71Jco0NNzj5yLCY-58">
          <mxGeometry width="280" height="33" as="geometry" />
        </mxCell>
        <mxCell id="zPnNZ71Jco0NNzj5yLCY-60" value="orderId" style="connectable=0;recursiveResize=0;strokeColor=inherit;fillColor=#A7C942;align=center;fontStyle=1;fontColor=#FFFFFF;html=1;" vertex="1" parent="zPnNZ71Jco0NNzj5yLCY-59">
          <mxGeometry width="93" height="33" as="geometry">
            <mxRectangle width="93" height="33" as="alternateBounds" />
          </mxGeometry>
        </mxCell>
        <mxCell id="zPnNZ71Jco0NNzj5yLCY-61" value="quantity" style="connectable=0;recursiveResize=0;strokeColor=inherit;fillColor=#A7C942;align=center;fontStyle=1;fontColor=#FFFFFF;html=1;" vertex="1" parent="zPnNZ71Jco0NNzj5yLCY-59">
          <mxGeometry x="93" width="94" height="33" as="geometry">
            <mxRectangle width="94" height="33" as="alternateBounds" />
          </mxGeometry>
        </mxCell>
        <mxCell id="zPnNZ71Jco0NNzj5yLCY-62" value="inserted" style="connectable=0;recursiveResize=0;strokeColor=inherit;fillColor=#A7C942;align=center;fontStyle=1;fontColor=#FFFFFF;html=1;" vertex="1" parent="zPnNZ71Jco0NNzj5yLCY-59">
          <mxGeometry x="187" width="93" height="33" as="geometry">
            <mxRectangle width="93" height="33" as="alternateBounds" />
          </mxGeometry>
        </mxCell>
        <mxCell id="zPnNZ71Jco0NNzj5yLCY-63" value="" style="shape=tableRow;horizontal=0;startSize=0;swimlaneHead=0;swimlaneBody=0;top=0;left=0;bottom=0;right=0;dropTarget=0;collapsible=0;recursiveResize=0;expand=0;fontStyle=0;strokeColor=inherit;fillColor=#ffffff;" vertex="1" parent="zPnNZ71Jco0NNzj5yLCY-58">
          <mxGeometry y="33" width="280" height="32" as="geometry" />
        </mxCell>
        <mxCell id="zPnNZ71Jco0NNzj5yLCY-64" value="id1" style="connectable=0;recursiveResize=0;strokeColor=inherit;fillColor=inherit;align=center;whiteSpace=wrap;html=1;" vertex="1" parent="zPnNZ71Jco0NNzj5yLCY-63">
          <mxGeometry width="93" height="32" as="geometry">
            <mxRectangle width="93" height="32" as="alternateBounds" />
          </mxGeometry>
        </mxCell>
        <mxCell id="zPnNZ71Jco0NNzj5yLCY-65" value="2" style="connectable=0;recursiveResize=0;strokeColor=inherit;fillColor=inherit;align=center;whiteSpace=wrap;html=1;" vertex="1" parent="zPnNZ71Jco0NNzj5yLCY-63">
          <mxGeometry x="93" width="94" height="32" as="geometry">
            <mxRectangle width="94" height="32" as="alternateBounds" />
          </mxGeometry>
        </mxCell>
        <mxCell id="zPnNZ71Jco0NNzj5yLCY-66" value="31-01-25" style="connectable=0;recursiveResize=0;strokeColor=inherit;fillColor=inherit;align=center;whiteSpace=wrap;html=1;" vertex="1" parent="zPnNZ71Jco0NNzj5yLCY-63">
          <mxGeometry x="187" width="93" height="32" as="geometry">
            <mxRectangle width="93" height="32" as="alternateBounds" />
          </mxGeometry>
        </mxCell>
        <mxCell id="zPnNZ71Jco0NNzj5yLCY-67" value="" style="shape=tableRow;horizontal=0;startSize=0;swimlaneHead=0;swimlaneBody=0;top=0;left=0;bottom=0;right=0;dropTarget=0;collapsible=0;recursiveResize=0;expand=0;fontStyle=1;strokeColor=inherit;fillColor=#EAF2D3;" vertex="1" parent="zPnNZ71Jco0NNzj5yLCY-58">
          <mxGeometry y="65" width="280" height="31" as="geometry" />
        </mxCell>
        <mxCell id="zPnNZ71Jco0NNzj5yLCY-68" value="id2" style="connectable=0;recursiveResize=0;strokeColor=inherit;fillColor=inherit;whiteSpace=wrap;html=1;" vertex="1" parent="zPnNZ71Jco0NNzj5yLCY-67">
          <mxGeometry width="93" height="31" as="geometry">
            <mxRectangle width="93" height="31" as="alternateBounds" />
          </mxGeometry>
        </mxCell>
        <mxCell id="zPnNZ71Jco0NNzj5yLCY-69" value="12" style="connectable=0;recursiveResize=0;strokeColor=inherit;fillColor=inherit;whiteSpace=wrap;html=1;" vertex="1" parent="zPnNZ71Jco0NNzj5yLCY-67">
          <mxGeometry x="93" width="94" height="31" as="geometry">
            <mxRectangle width="94" height="31" as="alternateBounds" />
          </mxGeometry>
        </mxCell>
        <mxCell id="zPnNZ71Jco0NNzj5yLCY-70" value="&lt;div&gt;09-02-25&lt;/div&gt;" style="connectable=0;recursiveResize=0;strokeColor=inherit;fillColor=inherit;whiteSpace=wrap;html=1;" vertex="1" parent="zPnNZ71Jco0NNzj5yLCY-67">
          <mxGeometry x="187" width="93" height="31" as="geometry">
            <mxRectangle width="93" height="31" as="alternateBounds" />
          </mxGeometry>
        </mxCell>
        <mxCell id="zPnNZ71Jco0NNzj5yLCY-71" value="" style="shape=tableRow;horizontal=0;startSize=0;swimlaneHead=0;swimlaneBody=0;top=0;left=0;bottom=0;right=0;dropTarget=0;collapsible=0;recursiveResize=0;expand=0;fontStyle=0;strokeColor=inherit;fillColor=#ffffff;" vertex="1" parent="zPnNZ71Jco0NNzj5yLCY-58">
          <mxGeometry y="96" width="280" height="33" as="geometry" />
        </mxCell>
        <mxCell id="zPnNZ71Jco0NNzj5yLCY-72" value="id3" style="connectable=0;recursiveResize=0;strokeColor=inherit;fillColor=inherit;fontStyle=0;align=center;whiteSpace=wrap;html=1;" vertex="1" parent="zPnNZ71Jco0NNzj5yLCY-71">
          <mxGeometry width="93" height="33" as="geometry">
            <mxRectangle width="93" height="33" as="alternateBounds" />
          </mxGeometry>
        </mxCell>
        <mxCell id="zPnNZ71Jco0NNzj5yLCY-73" value="4" style="connectable=0;recursiveResize=0;strokeColor=inherit;fillColor=inherit;fontStyle=0;align=center;whiteSpace=wrap;html=1;" vertex="1" parent="zPnNZ71Jco0NNzj5yLCY-71">
          <mxGeometry x="93" width="94" height="33" as="geometry">
            <mxRectangle width="94" height="33" as="alternateBounds" />
          </mxGeometry>
        </mxCell>
        <mxCell id="zPnNZ71Jco0NNzj5yLCY-74" value="10-02-25" style="connectable=0;recursiveResize=0;strokeColor=inherit;fillColor=inherit;fontStyle=0;align=center;whiteSpace=wrap;html=1;" vertex="1" parent="zPnNZ71Jco0NNzj5yLCY-71">
          <mxGeometry x="187" width="93" height="33" as="geometry">
            <mxRectangle width="93" height="33" as="alternateBounds" />
          </mxGeometry>
        </mxCell>
        <mxCell id="zPnNZ71Jco0NNzj5yLCY-75" value="" style="shape=tableRow;horizontal=0;startSize=0;swimlaneHead=0;swimlaneBody=0;top=0;left=0;bottom=0;right=0;dropTarget=0;collapsible=0;recursiveResize=0;expand=0;fontStyle=1;strokeColor=inherit;fillColor=#EAF2D3;" vertex="1" parent="zPnNZ71Jco0NNzj5yLCY-58">
          <mxGeometry y="129" width="280" height="31" as="geometry" />
        </mxCell>
        <mxCell id="zPnNZ71Jco0NNzj5yLCY-76" value="..." style="connectable=0;recursiveResize=0;strokeColor=inherit;fillColor=inherit;whiteSpace=wrap;html=1;" vertex="1" parent="zPnNZ71Jco0NNzj5yLCY-75">
          <mxGeometry width="93" height="31" as="geometry">
            <mxRectangle width="93" height="31" as="alternateBounds" />
          </mxGeometry>
        </mxCell>
        <mxCell id="zPnNZ71Jco0NNzj5yLCY-77" value="..." style="connectable=0;recursiveResize=0;strokeColor=inherit;fillColor=inherit;whiteSpace=wrap;html=1;" vertex="1" parent="zPnNZ71Jco0NNzj5yLCY-75">
          <mxGeometry x="93" width="94" height="31" as="geometry">
            <mxRectangle width="94" height="31" as="alternateBounds" />
          </mxGeometry>
        </mxCell>
        <mxCell id="zPnNZ71Jco0NNzj5yLCY-78" value="..." style="connectable=0;recursiveResize=0;strokeColor=inherit;fillColor=inherit;whiteSpace=wrap;html=1;" vertex="1" parent="zPnNZ71Jco0NNzj5yLCY-75">
          <mxGeometry x="187" width="93" height="31" as="geometry">
            <mxRectangle width="93" height="31" as="alternateBounds" />
          </mxGeometry>
        </mxCell>
        <mxCell id="zPnNZ71Jco0NNzj5yLCY-79" value="Sell Orders" style="text;html=1;align=center;verticalAlign=middle;whiteSpace=wrap;rounded=0;fontStyle=1" vertex="1" parent="zPnNZ71Jco0NNzj5yLCY-57">
          <mxGeometry x="90" width="90" height="30" as="geometry" />
        </mxCell>
      </root>
    </mxGraphModel>
  </diagram>
</mxfile>
